<svg xmlns="http://www.w3.org/2000/svg" width="25.404" height="30.848" viewBox="0 0 25.404 30.848">
  <path id="courses-svgrepo-com" d="M194.438,0V23.59h-3.629v5.444h2.722v1.815H173.57a4.547,4.547,0,0,1-4.536-4.536V4.536A4.538,4.538,0,0,1,173.57,0Zm-5.444,23.59H173.77a2.857,2.857,0,0,0-2.885,2.25,3.2,3.2,0,0,0-.036.436v.036a2.647,2.647,0,0,0,.653,1.76,2.7,2.7,0,0,0,2.069.962h15.424V27.219H172.9V25.4h16.1V23.59Zm3.629-21.775H173.57a2.729,2.729,0,0,0-2.722,2.722v18.2a4.939,4.939,0,0,1,2.921-.962h18.854V1.815Zm-4.537,12.7v1.815h-12.7V14.517h12.7Zm.907-9.073V12.7H174.477V5.444h14.517Zm-1.815,1.815H176.292v3.629h10.888V7.258Z" transform="translate(-169.034)" fill="#fff" fill-rule="evenodd"/>
</svg>
