<svg id="electric-car-illustration-1-svgrepo-com" xmlns="http://www.w3.org/2000/svg" width="41.052" height="24.41" viewBox="0 0 41.052 24.41">
  <path id="Path_2583" data-name="Path 2583" d="M85.319,267.524a.758.758,0,1,0,.759.76A.759.759,0,0,0,85.319,267.524Z" transform="translate(-77.78 -254.395)" fill="#fff"/>
  <path id="Path_2584" data-name="Path 2584" d="M371.8,267.524a.758.758,0,1,0,.759.76A.758.758,0,0,0,371.8,267.524Z" transform="translate(-341.29 -254.395)" fill="#fff"/>
  <path id="Path_2585" data-name="Path 2585" d="M150.345,136.55a14.956,14.956,0,0,0-1.315,1.195.193.193,0,0,0,.129.335h8.861v-4.262c-.1,0-.2,0-.305,0A11.244,11.244,0,0,0,150.345,136.55Z" transform="translate(-137.024 -131.406)" fill="#fff"/>
  <path id="Path_2586" data-name="Path 2586" d="M290.692,138.538a13.347,13.347,0,0,0-6.031-2.6v4.1h7.178a.193.193,0,0,0,.178-.123.2.2,0,0,0-.049-.212A15.048,15.048,0,0,0,290.692,138.538Z" transform="translate(-261.837 -133.361)" fill="#fff"/>
  <path id="Path_2587" data-name="Path 2587" d="M38.251,115.223H37.47a6.985,6.985,0,0,0-2.965-4.055,16.945,16.945,0,0,0-14-7.385c-5.12,0-8.973,2.575-12.074,6.13a6.6,6.6,0,0,0-1.118-.082A7.315,7.315,0,0,0,0,117.144c0,.247.013.49.036.731l.049.489H3.924a3.681,3.681,0,0,0,7.231,0H26.894a3.681,3.681,0,0,0,7.23,0h3.471l.059-.478a6.837,6.837,0,0,0,.054-.855c0-.23-.015-.456-.037-.681h.58a1.674,1.674,0,0,1,1.674,1.674v5.3A1.675,1.675,0,0,1,38.251,125H22.776a2.631,2.631,0,0,0-2.569-2.068H17.575v.939H15.921v.94h1.654v1.5H15.921v.94h1.654v.94h2.632a2.632,2.632,0,0,0,2.569-2.068H38.251a2.8,2.8,0,0,0,2.8-2.8v-5.3A2.8,2.8,0,0,0,38.251,115.223ZM7.539,119.432a1.761,1.761,0,1,1,1.762-1.76A1.76,1.76,0,0,1,7.539,119.432Zm22.97,0a1.761,1.761,0,1,1,1.761-1.76A1.761,1.761,0,0,1,30.509,119.432Zm6.1-2.154H34.168a3.682,3.682,0,0,0-7.321,0H11.2a3.682,3.682,0,0,0-7.322,0H1.094c0-.045-.007-.088-.007-.133a6.226,6.226,0,0,1,6.226-6.226,5.282,5.282,0,0,1,1.208.117l.319.07.211-.252c2.925-3.473,6.6-5.987,11.455-5.983a15.857,15.857,0,0,1,13.165,7l.065.1.1.06a5.882,5.882,0,0,1,2.786,5C36.621,117.115,36.608,117.195,36.6,117.277Z" transform="translate(0 -103.783)" fill="#fff"/>
</svg>
